<!--suppress ALL, XmlDefaultAttributeValue -->
<svg version="1.1" xmlns="http://www.w3.org/2000/svg" xmlns:xlink="http://www.w3.org/1999/xlink" width="304.525390625" height="258"><defs/><g><g transform="translate(-12,-14) scale(1,1)"><rect fill="#C0C0C0" stroke="none" x="39" y="167" width="104.75439453125" height="102" opacity="0.2"/></g><g transform="translate(-12,-14) scale(1,1)"><rect fill="#ffffff" stroke="none" x="32" y="160" width="104.75439453125" height="102"/></g><g transform="translate(-12,-14) scale(1,1)"><path fill="none" stroke="#000000" d="M 32 160 L 136.75439453125 160 L 136.75439453125 262 L 32 262 L 32 160 Z Z" stroke-miterlimit="10"/></g><g transform="translate(-12,-14) scale(1,1)"><path fill="none" stroke="#000000" d="M 32 185 L 136.75439453125 185" stroke-miterlimit="10"/></g><g transform="translate(-12,-14) scale(1,1)"><path fill="none" stroke="#000000" d="M 32 253 L 136.75439453125 253" stroke-miterlimit="10"/></g><g transform="translate(-12,-14) scale(1,1)"><g><path fill="none" stroke="none"/><text fill="#000000" stroke="none" font-family="Arial" font-size="13px" font-style="normal" font-weight="bold" text-decoration="none" x="70.653564453125" y="179.5">User</text></g></g><g transform="translate(-12,-14) scale(1,1)"><g><path fill="none" stroke="none"/><text fill="#000000" stroke="none" font-family="Arial" font-size="13px" font-style="normal" font-weight="normal" text-decoration="none" x="37" y="202.5">+id {PK}</text></g></g><g transform="translate(-12,-14) scale(1,1)"><g><path fill="none" stroke="none"/><text fill="#000000" stroke="none" font-family="Arial" font-size="13px" font-style="normal" font-weight="normal" text-decoration="none" x="37" y="217.5">+username {CK}</text></g></g><g transform="translate(-12,-14) scale(1,1)"><g><path fill="none" stroke="none"/><text fill="#000000" stroke="none" font-family="Arial" font-size="13px" font-style="normal" font-weight="normal" text-decoration="none" x="37" y="232.5">+passwordHash</text></g></g><g transform="translate(-12,-14) scale(1,1)"><g><path fill="none" stroke="none"/><text fill="#000000" stroke="none" font-family="Arial" font-size="13px" font-style="normal" font-weight="normal" text-decoration="none" x="37" y="247.5">+passwordSalt</text></g></g><g transform="translate(-12,-14) scale(1,1)"><path fill="none" stroke="#000000" d="M 83 160 L 83 136 L 176 136 L 176 211 L 137 211" stroke-miterlimit="10"/></g><g transform="translate(-12,-14) scale(1,1)"><g><path fill="none" stroke="none"/><text fill="#000000" stroke="none" font-family="Arial" font-size="13px" font-style="normal" font-weight="normal" text-decoration="none" x="21.5" y="156.5">+receiver</text></g></g><g transform="translate(-12,-14) scale(1,1)"><g><path fill="none" stroke="none"/><text fill="#000000" stroke="none" font-family="Arial" font-size="13px" font-style="normal" font-weight="normal" text-decoration="none" x="87.5" y="156.5">1</text></g></g><g transform="translate(-12,-14) scale(1,1)"><g><path fill="none" stroke="none"/><text fill="#000000" stroke="none" font-family="Arial" font-size="13px" font-style="normal" font-weight="normal" text-decoration="none" x="138.5" y="231.5">+sender</text></g></g><g transform="translate(-12,-14) scale(1,1)"><g><path fill="none" stroke="none"/><text fill="#000000" stroke="none" font-family="Arial" font-size="13px" font-style="normal" font-weight="normal" text-decoration="none" x="154.5" y="204.5">1</text></g></g><g transform="translate(-12,-14) scale(1,1)"><rect fill="#C0C0C0" stroke="none" x="207" y="31" width="106.525390625" height="57" opacity="0.2"/></g><g transform="translate(-12,-14) scale(1,1)"><rect fill="#ffffff" stroke="none" x="200" y="24" width="106.525390625" height="57"/></g><g transform="translate(-12,-14) scale(1,1)"><path fill="none" stroke="#000000" d="M 200 24 L 306.525390625 24 L 306.525390625 81 L 200 81 L 200 24 Z Z" stroke-miterlimit="10"/></g><g transform="translate(-12,-14) scale(1,1)"><path fill="none" stroke="#000000" d="M 200 49 L 306.525390625 49" stroke-miterlimit="10"/></g><g transform="translate(-12,-14) scale(1,1)"><path fill="none" stroke="#000000" d="M 200 72 L 306.525390625 72" stroke-miterlimit="10"/></g><g transform="translate(-12,-14) scale(1,1)"><g><path fill="none" stroke="none"/><text fill="#000000" stroke="none" font-family="Arial" font-size="13px" font-style="normal" font-weight="bold" text-decoration="none" x="207.740478515625" y="43.5">HaveFriendship</text></g></g><g transform="translate(-12,-14) scale(1,1)"><g><path fill="none" stroke="none"/><text fill="#000000" stroke="none" font-family="Arial" font-size="13px" font-style="normal" font-weight="normal" text-decoration="none" x="205" y="66.5">+status</text></g></g><g transform="translate(-12,-14) scale(1,1)"><path fill="none" stroke="#000000" d="M 234 82 L 176 173" stroke-miterlimit="10" stroke-dasharray="3"/></g></g></svg>