<svg version="1.1" xmlns="http://www.w3.org/2000/svg" xmlns:xlink="http://www.w3.org/1999/xlink" width="1111.236328125" height="810"><defs/><g><g transform="translate(-358,-22) scale(1,1)"><path fill="#ffffff" stroke="none" d="M 1396.9388913352273 721.6800000000001 C 1396.9388913352273 716.8861679360001 1400.8247336601728 713 1405.6181640625 713 C 1410.4115944648272 713 1414.2974367897727 716.8861679360001 1414.2974367897727 721.6800000000001 C 1414.2974367897727 726.473832064 1410.4115944648272 730.36 1405.6181640625 730.36 C 1400.8247336601728 730.36 1396.9388913352273 726.473832064 1396.9388913352273 721.6800000000001 Z"/></g><g transform="translate(-358,-22) scale(1,1)"><path fill="none" stroke="#000000" d="M 1396.9388913352273 721.6800000000001 C 1396.9388913352273 716.8861679360001 1400.8247336601728 713 1405.6181640625 713 C 1410.4115944648272 713 1414.2974367897727 716.8861679360001 1414.2974367897727 721.6800000000001 C 1414.2974367897727 726.473832064 1410.4115944648272 730.36 1405.6181640625 730.36 C 1400.8247336601728 730.36 1396.9388913352273 726.473832064 1396.9388913352273 721.6800000000001 Z" stroke-miterlimit="10"/></g><g transform="translate(-358,-22) scale(1,1)"><path fill="none" stroke="#000000" d="M 1405.6181640625 730.36 L 1405.6181640625 747.64" stroke-miterlimit="10"/></g><g transform="translate(-358,-22) scale(1,1)"><path fill="none" stroke="#000000" d="M 1396.4283458806817 736.84 L 1414.8079822443183 736.84" stroke-miterlimit="10"/></g><g transform="translate(-358,-22) scale(1,1)"><path fill="none" stroke="#000000" d="M 1405.6181640625 747.64 L 1392.8545276988636 765" stroke-miterlimit="10"/></g><g transform="translate(-358,-22) scale(1,1)"><path fill="none" stroke="#000000" d="M 1405.6181640625 747.64 L 1418.3818004261364 765" stroke-miterlimit="10"/></g><g transform="translate(-358,-22) scale(1,1)"><g><path fill="none" stroke="none"/><text fill="#000000" stroke="none" font-family="Arial" font-size="13px" font-style="normal" font-weight="bold" text-decoration="none" x="1368.40185546875" y="785.5">Another user</text></g></g><g transform="translate(-358,-22) scale(1,1)"><g><path fill="none" stroke="none"/><text fill="#000000" stroke="none" font-family="Arial" font-size="13px" font-style="normal" font-weight="normal" text-decoration="none" x="1356.5" y="800.5">(from UseCases)</text></g></g><g transform="translate(-358,-22) scale(1,1)"><path fill="#ffffff" stroke="none" d="M 1148.9388913352273 41.68 C 1148.9388913352273 36.886167936 1152.8247336601728 33 1157.6181640625 33 C 1162.4115944648272 33 1166.2974367897727 36.886167936 1166.2974367897727 41.68 C 1166.2974367897727 46.473832064 1162.4115944648272 50.36 1157.6181640625 50.36 C 1152.8247336601728 50.36 1148.9388913352273 46.473832064 1148.9388913352273 41.68 Z"/></g><g transform="translate(-358,-22) scale(1,1)"><path fill="none" stroke="#000000" d="M 1148.9388913352273 41.68 C 1148.9388913352273 36.886167936 1152.8247336601728 33 1157.6181640625 33 C 1162.4115944648272 33 1166.2974367897727 36.886167936 1166.2974367897727 41.68 C 1166.2974367897727 46.473832064 1162.4115944648272 50.36 1157.6181640625 50.36 C 1152.8247336601728 50.36 1148.9388913352273 46.473832064 1148.9388913352273 41.68 Z" stroke-miterlimit="10"/></g><g transform="translate(-358,-22) scale(1,1)"><path fill="none" stroke="#000000" d="M 1157.6181640625 50.36 L 1157.6181640625 67.64" stroke-miterlimit="10"/></g><g transform="translate(-358,-22) scale(1,1)"><path fill="none" stroke="#000000" d="M 1148.4283458806817 56.84 L 1166.8079822443183 56.84" stroke-miterlimit="10"/></g><g transform="translate(-358,-22) scale(1,1)"><path fill="none" stroke="#000000" d="M 1157.6181640625 67.64 L 1144.8545276988636 85" stroke-miterlimit="10"/></g><g transform="translate(-358,-22) scale(1,1)"><path fill="none" stroke="#000000" d="M 1157.6181640625 67.64 L 1170.3818004261364 85" stroke-miterlimit="10"/></g><g transform="translate(-358,-22) scale(1,1)"><g><path fill="none" stroke="none"/><text fill="#000000" stroke="none" font-family="Arial" font-size="13px" font-style="normal" font-weight="bold" text-decoration="none" x="1138.4736328125" y="105.5">Server</text></g></g><g transform="translate(-358,-22) scale(1,1)"><g><path fill="none" stroke="none"/><text fill="#000000" stroke="none" font-family="Arial" font-size="13px" font-style="normal" font-weight="normal" text-decoration="none" x="1108.5" y="120.5">(from UseCases)</text></g></g><g transform="translate(-358,-22) scale(1,1)"><path fill="#ffffff" stroke="none" d="M 412.93889133522725 737.6800000000001 C 412.93889133522725 732.8861679360001 416.82473366017274 729 421.6181640625 729 C 426.41159446482726 729 430.29743678977275 732.8861679360001 430.29743678977275 737.6800000000001 C 430.29743678977275 742.473832064 426.41159446482726 746.36 421.6181640625 746.36 C 416.82473366017274 746.36 412.93889133522725 742.473832064 412.93889133522725 737.6800000000001 Z"/></g><g transform="translate(-358,-22) scale(1,1)"><path fill="none" stroke="#000000" d="M 412.93889133522725 737.6800000000001 C 412.93889133522725 732.8861679360001 416.82473366017274 729 421.6181640625 729 C 426.41159446482726 729 430.29743678977275 732.8861679360001 430.29743678977275 737.6800000000001 C 430.29743678977275 742.473832064 426.41159446482726 746.36 421.6181640625 746.36 C 416.82473366017274 746.36 412.93889133522725 742.473832064 412.93889133522725 737.6800000000001 Z" stroke-miterlimit="10"/></g><g transform="translate(-358,-22) scale(1,1)"><path fill="none" stroke="#000000" d="M 421.6181640625 746.36 L 421.6181640625 763.64" stroke-miterlimit="10"/></g><g transform="translate(-358,-22) scale(1,1)"><path fill="none" stroke="#000000" d="M 412.42834588068183 752.84 L 430.80798224431817 752.84" stroke-miterlimit="10"/></g><g transform="translate(-358,-22) scale(1,1)"><path fill="none" stroke="#000000" d="M 421.6181640625 763.64 L 408.85452769886365 781" stroke-miterlimit="10"/></g><g transform="translate(-358,-22) scale(1,1)"><path fill="none" stroke="#000000" d="M 421.6181640625 763.64 L 434.38180042613635 781" stroke-miterlimit="10"/></g><g transform="translate(-358,-22) scale(1,1)"><g><path fill="none" stroke="none"/><text fill="#000000" stroke="none" font-family="Arial" font-size="13px" font-style="normal" font-weight="bold" text-decoration="none" x="407.89453125" y="801.5">User</text></g></g><g transform="translate(-358,-22) scale(1,1)"><g><path fill="none" stroke="none"/><text fill="#000000" stroke="none" font-family="Arial" font-size="13px" font-style="normal" font-weight="normal" text-decoration="none" x="372.5" y="816.5">(from UseCases)</text></g></g><g transform="translate(-358,-22) scale(1,1)"><path fill="#C0C0C0" stroke="none" d="M 1103 520 C 1103 510.6111584 1128.743624 503 1160.5 503 C 1192.256376 503 1218 510.6111584 1218 520 C 1218 529.3888416 1192.256376 537 1160.5 537 C 1128.743624 537 1103 529.3888416 1103 520 Z" opacity="0.2"/></g><g transform="translate(-358,-22) scale(1,1)"><path fill="#ffffff" stroke="none" d="M 1096 513 C 1096 503.6111584 1121.743624 496 1153.5 496 C 1185.256376 496 1211 503.6111584 1211 513 C 1211 522.3888416 1185.256376 530 1153.5 530 C 1121.743624 530 1096 522.3888416 1096 513 Z"/></g><g transform="translate(-358,-22) scale(1,1)"><path fill="none" stroke="#000000" d="M 1096 513 C 1096 503.6111584 1121.743624 496 1153.5 496 C 1185.256376 496 1211 503.6111584 1211 513 C 1211 522.3888416 1185.256376 530 1153.5 530 C 1121.743624 530 1096 522.3888416 1096 513 Z" stroke-miterlimit="10"/></g><g transform="translate(-358,-22) scale(1,1)"><g><path fill="none" stroke="none"/><text fill="#000000" stroke="none" font-family="Arial" font-size="13px" font-style="normal" font-weight="bold" text-decoration="none" x="1120.25732421875" y="520">Initiate chat</text></g></g><g transform="translate(-358,-22) scale(1,1)"><path fill="#C0C0C0" stroke="none" d="M 391 64 C 391 54.6111584 408.908608 47 431 47 C 453.091392 47 471 54.6111584 471 64 C 471 73.3888416 453.091392 81 431 81 C 408.908608 81 391 73.3888416 391 64 Z" opacity="0.2"/></g><g transform="translate(-358,-22) scale(1,1)"><path fill="#ffffff" stroke="none" d="M 384 57 C 384 47.6111584 401.908608 40 424 40 C 446.091392 40 464 47.6111584 464 57 C 464 66.3888416 446.091392 74 424 74 C 401.908608 74 384 66.3888416 384 57 Z"/></g><g transform="translate(-358,-22) scale(1,1)"><path fill="none" stroke="#000000" d="M 384 57 C 384 47.6111584 401.908608 40 424 40 C 446.091392 40 464 47.6111584 464 57 C 464 66.3888416 446.091392 74 424 74 C 401.908608 74 384 66.3888416 384 57 Z" stroke-miterlimit="10"/></g><g transform="translate(-358,-22) scale(1,1)"><g><path fill="none" stroke="none"/><text fill="#000000" stroke="none" font-family="Arial" font-size="13px" font-style="normal" font-weight="bold" text-decoration="none" x="401.95458984375" y="64">Sign up</text></g></g><g transform="translate(-358,-22) scale(1,1)"><path fill="none" stroke="#000000" d="M 1103 77 L 465 58" stroke-miterlimit="10"/></g><g transform="translate(-358,-22) scale(1,1)"><path fill="none" stroke="#000000" d="M 421 727 L 424 75" stroke-miterlimit="10"/></g><g transform="translate(-358,-22) scale(1,1)"><path fill="#C0C0C0" stroke="none" d="M 551 280 C 551 270.6111584 588.8319344 263 635.5 263 C 682.1680656 263 720 270.6111584 720 280 C 720 289.3888416 682.1680656 297 635.5 297 C 588.8319344 297 551 289.3888416 551 280 Z" opacity="0.2"/></g><g transform="translate(-358,-22) scale(1,1)"><path fill="#ffffff" stroke="none" d="M 544 273 C 544 263.6111584 581.8319344 256 628.5 256 C 675.1680656 256 713 263.6111584 713 273 C 713 282.3888416 675.1680656 290 628.5 290 C 581.8319344 290 544 282.3888416 544 273 Z"/></g><g transform="translate(-358,-22) scale(1,1)"><path fill="none" stroke="#000000" d="M 544 273 C 544 263.6111584 581.8319344 256 628.5 256 C 675.1680656 256 713 263.6111584 713 273 C 713 282.3888416 675.1680656 290 628.5 290 C 581.8319344 290 544 282.3888416 544 273 Z" stroke-miterlimit="10"/></g><g transform="translate(-358,-22) scale(1,1)"><g><path fill="none" stroke="none"/><text fill="#000000" stroke="none" font-family="Arial" font-size="13px" font-style="normal" font-weight="bold" text-decoration="none" x="577.1982421875" y="280">Connect to server</text></g></g><g transform="translate(-358,-22) scale(1,1)"><path fill="#C0C0C0" stroke="none" d="M 903 336 C 903 326.6111584 951.8009568 319 1012 319 C 1072.1990432 319 1121 326.6111584 1121 336 C 1121 345.3888416 1072.1990432 353 1012 353 C 951.8009568 353 903 345.3888416 903 336 Z" opacity="0.2"/></g><g transform="translate(-358,-22) scale(1,1)"><path fill="#ffffff" stroke="none" d="M 896 329 C 896 319.6111584 944.8009568 312 1005 312 C 1065.1990432 312 1114 319.6111584 1114 329 C 1114 338.3888416 1065.1990432 346 1005 346 C 944.8009568 346 896 338.3888416 896 329 Z"/></g><g transform="translate(-358,-22) scale(1,1)"><path fill="none" stroke="#000000" d="M 896 329 C 896 319.6111584 944.8009568 312 1005 312 C 1065.1990432 312 1114 319.6111584 1114 329 C 1114 338.3888416 1065.1990432 346 1005 346 C 944.8009568 346 896 338.3888416 896 329 Z" stroke-miterlimit="10"/></g><g transform="translate(-358,-22) scale(1,1)"><g><path fill="none" stroke="none"/><text fill="#000000" stroke="none" font-family="Arial" font-size="13px" font-style="normal" font-weight="bold" text-decoration="none" x="938.175048828125" y="336">Disconnect from server</text></g></g><g transform="translate(-358,-22) scale(1,1)"><path fill="none" stroke="#000000" d="M 476 733 L 981 347" stroke-miterlimit="10"/></g><g transform="translate(-358,-22) scale(1,1)"><path fill="#C0C0C0" stroke="none" d="M 615 394.5 C 615 379.312168 668.2781088 367 734 367 C 799.7218912 367 853 379.312168 853 394.5 C 853 409.687832 799.7218912 422 734 422 C 668.2781088 422 615 409.687832 615 394.5 Z" opacity="0.2"/></g><g transform="translate(-358,-22) scale(1,1)"><path fill="#ffffff" stroke="none" d="M 608 387.5 C 608 372.312168 661.2781088 360 727 360 C 792.7218912 360 846 372.312168 846 387.5 C 846 402.687832 792.7218912 415 727 415 C 661.2781088 415 608 402.687832 608 387.5 Z"/></g><g transform="translate(-358,-22) scale(1,1)"><path fill="none" stroke="#000000" d="M 608 387.5 C 608 372.312168 661.2781088 360 727 360 C 792.7218912 360 846 372.312168 846 387.5 C 846 402.687832 792.7218912 415 727 415 C 661.2781088 415 608 402.687832 608 387.5 Z" stroke-miterlimit="10"/></g><g transform="translate(-358,-22) scale(1,1)"><g><path fill="none" stroke="none"/><text fill="#000000" stroke="none" font-family="Arial" font-size="13px" font-style="normal" font-weight="bold" text-decoration="none" x="654.011474609375" y="387">Notify about online status</text></g></g><g transform="translate(-358,-22) scale(1,1)"><g><path fill="none" stroke="none"/><text fill="#000000" stroke="none" font-family="Arial" font-size="13px" font-style="normal" font-weight="normal" text-decoration="none" x="690.161376953125" y="402">(from Social)</text></g></g><g transform="translate(-358,-22) scale(1,1)"><path fill="none" stroke="#000000" d="M 677 255 L 1103 99" stroke-miterlimit="10"/></g><g transform="translate(-358,-22) scale(1,1)"><path fill="none" stroke="#000000" d="M 1016 311 L 1128 127" stroke-miterlimit="10"/></g><g transform="translate(-358,-22) scale(1,1)"><path fill="none" stroke="#000000" d="M 644 291 L 703 359" stroke-miterlimit="10" stroke-dasharray="3"/></g><g transform="translate(-358,-22) scale(1,1)"><path fill="none" stroke="#000000" d="M 693.1603139826219 354.08262477744336 L 703 359 L 699.519400657874 348.565181926857" stroke-miterlimit="10"/></g><g transform="translate(-358,-22) scale(1,1)"><g><path fill="none" stroke="none"/><text fill="#000000" stroke="none" font-family="Arial" font-size="13px" font-style="normal" font-weight="normal" text-decoration="none" x="667.5" y="311.5">«include»</text></g></g><g transform="translate(-358,-22) scale(1,1)"><path fill="none" stroke="#000000" d="M 919 347 L 847 362" stroke-miterlimit="10" stroke-dasharray="3"/></g><g transform="translate(-358,-22) scale(1,1)"><path fill="none" stroke="#000000" d="M 856.0905106436742 355.806243769953 L 847 362 L 857.8076087518732 364.0483146893079" stroke-miterlimit="10"/></g><g transform="translate(-358,-22) scale(1,1)"><g><path fill="none" stroke="none"/><text fill="#000000" stroke="none" font-family="Arial" font-size="13px" font-style="normal" font-weight="normal" text-decoration="none" x="861.5" y="389.5">«include»</text></g></g><g transform="translate(-358,-22) scale(1,1)"><path fill="none" stroke="#000000" d="M 441 727 L 621 291" stroke-miterlimit="10"/></g><g transform="translate(-358,-22) scale(1,1)"><path fill="none" stroke="#000000" d="M 476 755 L 1103 531" stroke-miterlimit="10"/></g><g transform="translate(-358,-22) scale(1,1)"><path fill="none" stroke="#000000" d="M 1153 495 L 1157 127" stroke-miterlimit="10"/></g><g transform="translate(-358,-22) scale(1,1)"><path fill="none" stroke="#000000" d="M 1171 531 L 1356 711" stroke-miterlimit="10"/></g><g transform="translate(-358,-22) scale(1,1)"><path fill="#C0C0C0" stroke="none" d="M 519 146.5 C 519 131.31216799999999 553.0263552 119 595 119 C 636.9736448 119 671 131.31216799999999 671 146.5 C 671 161.68783200000001 636.9736448 174 595 174 C 553.0263552 174 519 161.68783200000001 519 146.5 Z" opacity="0.2"/></g><g transform="translate(-358,-22) scale(1,1)"><path fill="#ffffff" stroke="none" d="M 512 139.5 C 512 124.312168 546.0263552 112 588 112 C 629.9736448 112 664 124.312168 664 139.5 C 664 154.68783200000001 629.9736448 167 588 167 C 546.0263552 167 512 154.68783200000001 512 139.5 Z"/></g><g transform="translate(-358,-22) scale(1,1)"><path fill="none" stroke="#000000" d="M 512 139.5 C 512 124.312168 546.0263552 112 588 112 C 629.9736448 112 664 124.312168 664 139.5 C 664 154.68783200000001 629.9736448 167 588 167 C 546.0263552 167 512 154.68783200000001 512 139.5 Z" stroke-miterlimit="10"/></g><g transform="translate(-358,-22) scale(1,1)"><g><path fill="none" stroke="none"/><text fill="#000000" stroke="none" font-family="Arial" font-size="13px" font-style="normal" font-weight="bold" text-decoration="none" x="542.48095703125" y="139">Retrieve friends</text></g></g><g transform="translate(-358,-22) scale(1,1)"><g><path fill="none" stroke="none"/><text fill="#000000" stroke="none" font-family="Arial" font-size="13px" font-style="normal" font-weight="normal" text-decoration="none" x="551.161376953125" y="154">(from Social)</text></g></g><g transform="translate(-358,-22) scale(1,1)"><path fill="none" stroke="#000000" d="M 623 255 L 597 168" stroke-miterlimit="10" stroke-dasharray="3"/></g><g transform="translate(-358,-22) scale(1,1)"><path fill="none" stroke="#000000" d="M 603.9432139553011 176.53180988834796 L 597 168 L 595.8766930431772 178.94249429886776" stroke-miterlimit="10"/></g><g transform="translate(-358,-22) scale(1,1)"><g><path fill="none" stroke="none"/><text fill="#000000" stroke="none" font-family="Arial" font-size="13px" font-style="normal" font-weight="normal" text-decoration="none" x="553.5" y="225.5">«include»</text></g></g></g></svg>