<!--suppress ALL, XmlDefaultAttributeValue -->
<svg version="1.1" xmlns="http://www.w3.org/2000/svg" xmlns:xlink="http://www.w3.org/1999/xlink" width="1640.69384765625" height="1038"><defs/><g><g transform="translate(-106,-30) scale(1,1)"><rect fill="#C0C0C0" stroke="none" x="1079" y="487" width="664.69384765625" height="235" opacity="0.2"/></g><g transform="translate(-106,-30) scale(1,1)"><rect fill="#ffffff" stroke="none" x="1072" y="480" width="664.69384765625" height="235"/></g><g transform="translate(-106,-30) scale(1,1)"><path fill="none" stroke="#000000" d="M 1072 480 L 1736.69384765625 480 L 1736.69384765625 715 L 1072 715 L 1072 480 Z Z" stroke-miterlimit="10"/></g><g transform="translate(-106,-30) scale(1,1)"><path fill="none" stroke="#000000" d="M 1072 505 L 1736.69384765625 505" stroke-miterlimit="10"/></g><g transform="translate(-106,-30) scale(1,1)"><path fill="none" stroke="#000000" d="M 1072 558 L 1736.69384765625 558" stroke-miterlimit="10"/></g><g transform="translate(-106,-30) scale(1,1)"><g><path fill="none" stroke="none"/><text fill="#000000" stroke="none" font-family="Arial" font-size="13px" font-style="normal" font-weight="bold" text-decoration="none" x="1363.52197265625" y="499.5">ServerFacade</text></g></g><g transform="translate(-106,-30) scale(1,1)"><g><path fill="none" stroke="none"/><text fill="#000000" stroke="none" font-family="Arial" font-size="13px" font-style="normal" font-weight="normal" text-decoration="none" x="1077" y="522.5">-rmiAddress: String</text></g></g><g transform="translate(-106,-30) scale(1,1)"><g><path fill="none" stroke="none"/><text fill="#000000" stroke="none" font-family="Arial" font-size="13px" font-style="normal" font-weight="normal" text-decoration="none" x="1077" y="537.5">-rmiPort: Integer</text></g></g><g transform="translate(-106,-30) scale(1,1)"><g><path fill="none" stroke="none"/><text fill="#000000" stroke="none" font-family="Arial" font-size="13px" font-style="normal" font-weight="normal" text-decoration="none" x="1077" y="552.5">-rmiIdentifier: String</text></g></g><g transform="translate(-106,-30) scale(1,1)"><g><path fill="none" stroke="none"/><text fill="#000000" stroke="none" font-family="Arial" font-size="13px" font-style="normal" font-weight="normal" text-decoration="none" x="1077" y="575.5">+login(username: String, password: String, serverNotificationsListener: IServerNotificationsListener): UserToken</text></g></g><g transform="translate(-106,-30) scale(1,1)"><g><path fill="none" stroke="none"/><text fill="#000000" stroke="none" font-family="Arial" font-size="13px" font-style="normal" font-weight="normal" text-decoration="none" x="1077" y="590.5">+signUp(username: String, password: String, serverNotificationsListener: IServerNotificationsListener): UserToken</text></g></g><g transform="translate(-106,-30) scale(1,1)"><g><path fill="none" stroke="none"/><text fill="#000000" stroke="none" font-family="Arial" font-size="13px" font-style="normal" font-weight="normal" text-decoration="none" x="1077" y="605.5">+disconnect(token: UserToken)</text></g></g><g transform="translate(-106,-30) scale(1,1)"><g><path fill="none" stroke="none"/><text fill="#000000" stroke="none" font-family="Arial" font-size="13px" font-style="normal" font-weight="normal" text-decoration="none" x="1077" y="620.5">+retrieveFriends(token: UserToken): RemoteUser[0..*]</text></g></g><g transform="translate(-106,-30) scale(1,1)"><g><path fill="none" stroke="none"/><text fill="#000000" stroke="none" font-family="Arial" font-size="13px" font-style="normal" font-weight="normal" text-decoration="none" x="1077" y="635.5">+retrieveFriends(token: UserToken, status: StatusType): RemoteUser[0..*]</text></g></g><g transform="translate(-106,-30) scale(1,1)"><g><path fill="none" stroke="none"/><text fill="#000000" stroke="none" font-family="Arial" font-size="13px" font-style="normal" font-weight="normal" text-decoration="none" x="1077" y="650.5">+initiateChat(token: UserToken, localTunnel: IRemoteUserTunnel, remoteUser: String): IRemoteUserTunnel</text></g></g><g transform="translate(-106,-30) scale(1,1)"><g><path fill="none" stroke="none"/><text fill="#000000" stroke="none" font-family="Arial" font-size="13px" font-style="normal" font-weight="normal" text-decoration="none" x="1077" y="665.5">+requestFriendship(token: UserToken, remoteUser: String)</text></g></g><g transform="translate(-106,-30) scale(1,1)"><g><path fill="none" stroke="none"/><text fill="#000000" stroke="none" font-family="Arial" font-size="13px" font-style="normal" font-weight="normal" text-decoration="none" x="1077" y="680.5">+acceptFriendship(token: UserToken, remoteUser: String)</text></g></g><g transform="translate(-106,-30) scale(1,1)"><g><path fill="none" stroke="none"/><text fill="#000000" stroke="none" font-family="Arial" font-size="13px" font-style="normal" font-weight="normal" text-decoration="none" x="1077" y="695.5">+rejectFriendship(token: UserToken, remoteUser: String)</text></g></g><g transform="translate(-106,-30) scale(1,1)"><g><path fill="none" stroke="none"/><text fill="#000000" stroke="none" font-family="Arial" font-size="13px" font-style="normal" font-weight="normal" text-decoration="none" x="1077" y="710.5">+endFriendship(token: UserToken, remoteUser: String)</text></g></g><g transform="translate(-106,-30) scale(1,1)"><rect fill="#C0C0C0" stroke="none" x="447" y="487" width="310.666015625" height="100" opacity="0.2"/></g><g transform="translate(-106,-30) scale(1,1)"><rect fill="#ffffff" stroke="none" x="440" y="480" width="310.666015625" height="100"/></g><g transform="translate(-106,-30) scale(1,1)"><path fill="none" stroke="#000000" d="M 440 480 L 750.666015625 480 L 750.666015625 580 L 440 580 L 440 480 Z Z" stroke-miterlimit="10"/></g><g transform="translate(-106,-30) scale(1,1)"><path fill="none" stroke="#000000" d="M 440 505 L 750.666015625 505" stroke-miterlimit="10"/></g><g transform="translate(-106,-30) scale(1,1)"><path fill="none" stroke="#000000" d="M 440 528 L 750.666015625 528" stroke-miterlimit="10"/></g><g transform="translate(-106,-30) scale(1,1)"><g><path fill="none" stroke="none"/><text fill="#000000" stroke="none" font-family="Arial" font-size="13px" font-style="normal" font-weight="bold" text-decoration="none" x="521.63037109375" y="499.5">CurrentSessionsManager</text></g></g><g transform="translate(-106,-30) scale(1,1)"><g><path fill="none" stroke="none"/><text fill="#000000" stroke="none" font-family="Arial" font-size="13px" font-style="normal" font-weight="normal" text-decoration="none" x="445" y="522.5">-secrets: String[0..*]</text></g></g><g transform="translate(-106,-30) scale(1,1)"><g><path fill="none" stroke="none"/><text fill="#000000" stroke="none" font-family="Arial" font-size="13px" font-style="normal" font-weight="normal" text-decoration="none" x="445" y="545.5">+initiateSession(username: String): UserToken</text></g></g><g transform="translate(-106,-30) scale(1,1)"><g><path fill="none" stroke="none"/><text fill="#000000" stroke="none" font-family="Arial" font-size="13px" font-style="normal" font-weight="normal" text-decoration="none" x="445" y="560.5">+terminateSession(token: UserToken)</text></g></g><g transform="translate(-106,-30) scale(1,1)"><g><path fill="none" stroke="none"/><text fill="#000000" stroke="none" font-family="Arial" font-size="13px" font-style="normal" font-weight="normal" text-decoration="none" x="445" y="575.5">+getSessionUser(token: UserToken): String</text></g></g><g transform="translate(-106,-30) scale(1,1)"><rect fill="#C0C0C0" stroke="none" x="191" y="335" width="149.89892578125" height="102" opacity="0.2"/></g><g transform="translate(-106,-30) scale(1,1)"><rect fill="#ffffff" stroke="none" x="184" y="328" width="149.89892578125" height="102"/></g><g transform="translate(-106,-30) scale(1,1)"><path fill="none" stroke="#000000" d="M 184 328 L 333.89892578125 328 L 333.89892578125 430 L 184 430 L 184 328 Z Z" stroke-miterlimit="10"/></g><g transform="translate(-106,-30) scale(1,1)"><path fill="none" stroke="#000000" d="M 184 368 L 333.89892578125 368" stroke-miterlimit="10"/></g><g transform="translate(-106,-30) scale(1,1)"><path fill="none" stroke="#000000" d="M 184 421 L 333.89892578125 421" stroke-miterlimit="10"/></g><g transform="translate(-106,-30) scale(1,1)"><g><path fill="none" stroke="none"/><text fill="#000000" stroke="none" font-family="Arial" font-size="13px" font-style="normal" font-weight="bold" text-decoration="none" x="227.880859375" y="347.5">UserToken</text></g></g><g transform="translate(-106,-30) scale(1,1)"><g><path fill="none" stroke="none"/><text fill="#000000" stroke="none" font-family="Arial" font-size="13px" font-style="normal" font-weight="normal" text-decoration="none" x="210.186767578125" y="362.5">(from ClientSide)</text></g></g><g transform="translate(-106,-30) scale(1,1)"><g><path fill="none" stroke="none"/><text fill="#000000" stroke="none" font-family="Arial" font-size="13px" font-style="normal" font-weight="normal" text-decoration="none" x="189" y="385.5">-header: String</text></g></g><g transform="translate(-106,-30) scale(1,1)"><g><path fill="none" stroke="none"/><text fill="#000000" stroke="none" font-family="Arial" font-size="13px" font-style="normal" font-weight="normal" text-decoration="none" x="189" y="400.5">-payload: String</text></g></g><g transform="translate(-106,-30) scale(1,1)"><g><path fill="none" stroke="none"/><text fill="#000000" stroke="none" font-family="Arial" font-size="13px" font-style="normal" font-weight="normal" text-decoration="none" x="189" y="415.5">-signature: String</text></g></g><g transform="translate(-106,-30) scale(1,1)"><path fill="none" stroke="#000000" d="M 440 523 L 258 523 L 258 430" stroke-miterlimit="10"/></g><g transform="translate(-106,-30) scale(1,1)"><path fill="none" stroke="#000000" d="M 262.209517756016 440.16267485762415 L 258 430 L 253.790482243984 440.16267485762415" stroke-miterlimit="10"/></g><g transform="translate(-106,-30) scale(1,1)"><g><path fill="none" stroke="none"/><text fill="#000000" stroke="none" font-family="Arial" font-size="13px" font-style="normal" font-weight="normal" text-decoration="none" x="117.13134765625" y="462.5">-currentSessionTokens</text></g></g><g transform="translate(-106,-30) scale(1,1)"><g><path fill="none" stroke="none"/><text fill="#000000" stroke="none" font-family="Arial" font-size="13px" font-style="normal" font-weight="normal" text-decoration="none" x="270.5" y="462.5">0..*</text></g></g><g transform="translate(-106,-30) scale(1,1)"><rect fill="#C0C0C0" stroke="none" x="1151" y="154" width="540.43212890625" height="190" opacity="0.2"/></g><g transform="translate(-106,-30) scale(1,1)"><rect fill="#ffffff" stroke="none" x="1144" y="147" width="540.43212890625" height="190"/></g><g transform="translate(-106,-30) scale(1,1)"><path fill="none" stroke="#000000" d="M 1144 147 L 1684.43212890625 147 L 1684.43212890625 337 L 1144 337 L 1144 147 Z Z" stroke-miterlimit="10"/></g><g transform="translate(-106,-30) scale(1,1)"><path fill="none" stroke="#000000" d="M 1144 172 L 1684.43212890625 172" stroke-miterlimit="10"/></g><g transform="translate(-106,-30) scale(1,1)"><path fill="none" stroke="#000000" d="M 1144 225 L 1684.43212890625 225" stroke-miterlimit="10"/></g><g transform="translate(-106,-30) scale(1,1)"><g><path fill="none" stroke="none"/><text fill="#000000" stroke="none" font-family="Arial" font-size="13px" font-style="normal" font-weight="bold" text-decoration="none" x="1383.156982421875" y="166.5">UsersDAO</text></g></g><g transform="translate(-106,-30) scale(1,1)"><g><path fill="none" stroke="none"/><text fill="#000000" stroke="none" font-family="Arial" font-size="13px" font-style="normal" font-weight="normal" text-decoration="none" x="1149" y="189.5">-jdbcAddress: String</text></g></g><g transform="translate(-106,-30) scale(1,1)"><g><path fill="none" stroke="none"/><text fill="#000000" stroke="none" font-family="Arial" font-size="13px" font-style="normal" font-weight="normal" text-decoration="none" x="1149" y="204.5">-jdbcPort: Integer</text></g></g><g transform="translate(-106,-30) scale(1,1)"><g><path fill="none" stroke="none"/><text fill="#000000" stroke="none" font-family="Arial" font-size="13px" font-style="normal" font-weight="normal" text-decoration="none" x="1149" y="219.5">-jdbcIdentifier: String</text></g></g><g transform="translate(-106,-30) scale(1,1)"><g><path fill="none" stroke="none"/><text fill="#000000" stroke="none" font-family="Arial" font-size="13px" font-style="normal" font-weight="normal" text-decoration="none" x="1149" y="242.5">+existsUser(username: String): Boolean</text></g></g><g transform="translate(-106,-30) scale(1,1)"><g><path fill="none" stroke="none"/><text fill="#000000" stroke="none" font-family="Arial" font-size="13px" font-style="normal" font-weight="normal" text-decoration="none" x="1149" y="257.5">+createUser(username: String, password: String)</text></g></g><g transform="translate(-106,-30) scale(1,1)"><g><path fill="none" stroke="none"/><text fill="#000000" stroke="none" font-family="Arial" font-size="13px" font-style="normal" font-weight="normal" text-decoration="none" x="1149" y="272.5">+verifyUserCredentials(username: String, password: String): Boolean</text></g></g><g transform="translate(-106,-30) scale(1,1)"><g><path fill="none" stroke="none"/><text fill="#000000" stroke="none" font-family="Arial" font-size="13px" font-style="normal" font-weight="normal" text-decoration="none" x="1149" y="287.5">+retrieveFriends(username: String): RemoteUser[0..*]</text></g></g><g transform="translate(-106,-30) scale(1,1)"><g><path fill="none" stroke="none"/><text fill="#000000" stroke="none" font-family="Arial" font-size="13px" font-style="normal" font-weight="normal" text-decoration="none" x="1149" y="302.5">+retrieveFriends(username: String, status: StatusTypeDAO): RemoteUser[0..*]</text></g></g><g transform="translate(-106,-30) scale(1,1)"><g><path fill="none" stroke="none"/><text fill="#000000" stroke="none" font-family="Arial" font-size="13px" font-style="normal" font-weight="normal" text-decoration="none" x="1149" y="317.5">+checkUsersStatus(firstUser: String, secondUser: String, status: StatusTypeDAO): Boolean</text></g></g><g transform="translate(-106,-30) scale(1,1)"><g><path fill="none" stroke="none"/><text fill="#000000" stroke="none" font-family="Arial" font-size="13px" font-style="normal" font-weight="normal" text-decoration="none" x="1149" y="332.5">+updateUsersStatus(firstUser: String, secondUser: String, status: StatusTypeDAO)</text></g></g><g transform="translate(-106,-30) scale(1,1)"><path fill="none" stroke="#000000" d="M 1072 520 L 751 520" stroke-miterlimit="10"/></g><g transform="translate(-106,-30) scale(1,1)"><path fill="none" stroke="#000000" d="M 761.1626748576241 515.790482243984 L 751 520 L 761.1626748576241 524.209517756016" stroke-miterlimit="10"/></g><g transform="translate(-106,-30) scale(1,1)"><g><path fill="none" stroke="none"/><text fill="#000000" stroke="none" font-family="Arial" font-size="13px" font-style="normal" font-weight="normal" text-decoration="none" x="766.5" y="539.5">+currentSessionsManager</text></g></g><g transform="translate(-106,-30) scale(1,1)"><g><path fill="none" stroke="none"/><text fill="#000000" stroke="none" font-family="Arial" font-size="13px" font-style="normal" font-weight="normal" text-decoration="none" x="768.5" y="513.5">1</text></g></g><g transform="translate(-106,-30) scale(1,1)"><path fill="none" stroke="#000000" d="M 1409 480 L 1409 337" stroke-miterlimit="10"/></g><g transform="translate(-106,-30) scale(1,1)"><path fill="none" stroke="#000000" d="M 1413.2095177560159 347.16267485762415 L 1409 337 L 1404.7904822439841 347.16267485762415" stroke-miterlimit="10"/></g><g transform="translate(-106,-30) scale(1,1)"><g><path fill="none" stroke="none"/><text fill="#000000" stroke="none" font-family="Arial" font-size="13px" font-style="normal" font-weight="normal" text-decoration="none" x="1329.13134765625" y="370.5">-usersDAO</text></g></g><g transform="translate(-106,-30) scale(1,1)"><g><path fill="none" stroke="none"/><text fill="#000000" stroke="none" font-family="Arial" font-size="13px" font-style="normal" font-weight="normal" text-decoration="none" x="1423.5" y="369.5">1</text></g></g><g transform="translate(-106,-30) scale(1,1)"><rect fill="#C0C0C0" stroke="none" x="1079" y="855" width="664.69384765625" height="210" opacity="0.2"/></g><g transform="translate(-106,-30) scale(1,1)"><rect fill="#ffffff" stroke="none" x="1072" y="848" width="664.69384765625" height="210"/></g><g transform="translate(-106,-30) scale(1,1)"><path fill="none" stroke="#000000" d="M 1072 848 L 1736.69384765625 848 L 1736.69384765625 1058 L 1072 1058 L 1072 848 Z Z" stroke-miterlimit="10"/></g><g transform="translate(-106,-30) scale(1,1)"><path fill="none" stroke="#000000" d="M 1072 901 L 1736.69384765625 901" stroke-miterlimit="10"/></g><g transform="translate(-106,-30) scale(1,1)"><g><path fill="none" stroke="none"/><text fill="#000000" stroke="none" font-family="Arial" font-size="13px" font-style="normal" font-weight="normal" text-decoration="none" x="1372.1865234375" y="865.5">«interface»</text></g></g><g transform="translate(-106,-30) scale(1,1)"><g><path fill="none" stroke="none"/><text fill="#000000" stroke="none" font-family="Arial" font-size="13px" font-style="normal" font-weight="bold" text-decoration="none" x="1383.396484375" y="880.5">IServer</text></g></g><g transform="translate(-106,-30) scale(1,1)"><g><path fill="none" stroke="none"/><text fill="#000000" stroke="none" font-family="Arial" font-size="13px" font-style="normal" font-weight="normal" text-decoration="none" x="1355.584228515625" y="895.5">(from ClientSide)</text></g></g><g transform="translate(-106,-30) scale(1,1)"><g><path fill="none" stroke="none"/><text fill="#000000" stroke="none" font-family="Arial" font-size="13px" font-style="normal" font-weight="normal" text-decoration="none" x="1077" y="918.5">+login(username: String, password: String, serverNotificationsListener: IServerNotificationsListener): UserToken</text></g></g><g transform="translate(-106,-30) scale(1,1)"><g><path fill="none" stroke="none"/><text fill="#000000" stroke="none" font-family="Arial" font-size="13px" font-style="normal" font-weight="normal" text-decoration="none" x="1077" y="933.5">+signUp(username: String, password: String, serverNotificationsListener: IServerNotificationsListener): UserToken</text></g></g><g transform="translate(-106,-30) scale(1,1)"><g><path fill="none" stroke="none"/><text fill="#000000" stroke="none" font-family="Arial" font-size="13px" font-style="normal" font-weight="normal" text-decoration="none" x="1077" y="948.5">+disconnect(token: UserToken)</text></g></g><g transform="translate(-106,-30) scale(1,1)"><g><path fill="none" stroke="none"/><text fill="#000000" stroke="none" font-family="Arial" font-size="13px" font-style="normal" font-weight="normal" text-decoration="none" x="1077" y="963.5">+retrieveFriends(token: UserToken): RemoteUser[0..*]</text></g></g><g transform="translate(-106,-30) scale(1,1)"><g><path fill="none" stroke="none"/><text fill="#000000" stroke="none" font-family="Arial" font-size="13px" font-style="normal" font-weight="normal" text-decoration="none" x="1077" y="978.5">+retrieveFriends(token: UserToken, status: StatusType): RemoteUser[0..*]</text></g></g><g transform="translate(-106,-30) scale(1,1)"><g><path fill="none" stroke="none"/><text fill="#000000" stroke="none" font-family="Arial" font-size="13px" font-style="normal" font-weight="normal" text-decoration="none" x="1077" y="993.5">+initiateChat(token: UserToken, localTunnel: IRemoteUserTunnel, remoteUser: String): IRemoteUserTunnel</text></g></g><g transform="translate(-106,-30) scale(1,1)"><g><path fill="none" stroke="none"/><text fill="#000000" stroke="none" font-family="Arial" font-size="13px" font-style="normal" font-weight="normal" text-decoration="none" x="1077" y="1008.5">+requestFriendship(token: UserToken, remoteUser: String)</text></g></g><g transform="translate(-106,-30) scale(1,1)"><g><path fill="none" stroke="none"/><text fill="#000000" stroke="none" font-family="Arial" font-size="13px" font-style="normal" font-weight="normal" text-decoration="none" x="1077" y="1023.5">+acceptFriendship(token: UserToken, remoteUser: String)</text></g></g><g transform="translate(-106,-30) scale(1,1)"><g><path fill="none" stroke="none"/><text fill="#000000" stroke="none" font-family="Arial" font-size="13px" font-style="normal" font-weight="normal" text-decoration="none" x="1077" y="1038.5">+rejectFriendship(token: UserToken, remoteUser: String)</text></g></g><g transform="translate(-106,-30) scale(1,1)"><g><path fill="none" stroke="none"/><text fill="#000000" stroke="none" font-family="Arial" font-size="13px" font-style="normal" font-weight="normal" text-decoration="none" x="1077" y="1053.5">+endFriendship(token: UserToken, remoteUser: String)</text></g></g><g transform="translate(-106,-30) scale(1,1)"><path fill="none" stroke="#000000" d="M 1404 716 L 1404 847" stroke-miterlimit="10" stroke-dasharray="3"/></g><g transform="translate(-106,-30) scale(1,1)"><path fill="#FFFFFF" stroke="none" d="M 1395.580964487968 826.6746502847517 L 1404 847 L 1412.419035512032 826.6746502847517"/></g><g transform="translate(-106,-30) scale(1,1)"><path fill="none" stroke="#000000" d="M 1395.580964487968 826.6746502847517 L 1404 847 L 1412.419035512032 826.6746502847517 L 1395.580964487968 826.6746502847517" stroke-miterlimit="10"/></g><g transform="translate(-106,-30) scale(1,1)"><rect fill="#C0C0C0" stroke="none" x="223" y="647" width="571.48486328125" height="90" opacity="0.2"/></g><g transform="translate(-106,-30) scale(1,1)"><rect fill="#ffffff" stroke="none" x="216" y="640" width="571.48486328125" height="90"/></g><g transform="translate(-106,-30) scale(1,1)"><path fill="none" stroke="#000000" d="M 216 640 L 787.48486328125 640 L 787.48486328125 730 L 216 730 L 216 640 Z Z" stroke-miterlimit="10"/></g><g transform="translate(-106,-30) scale(1,1)"><path fill="none" stroke="#000000" d="M 216 693 L 787.48486328125 693" stroke-miterlimit="10"/></g><g transform="translate(-106,-30) scale(1,1)"><g><path fill="none" stroke="none"/><text fill="#000000" stroke="none" font-family="Arial" font-size="13px" font-style="normal" font-weight="normal" text-decoration="none" x="469.58203125" y="657.5">«interface»</text></g></g><g transform="translate(-106,-30) scale(1,1)"><g><path fill="none" stroke="none"/><text fill="#000000" stroke="none" font-family="Arial" font-size="13px" font-style="normal" font-weight="bold" text-decoration="none" x="422.263427734375" y="672.5">IServerNotificationsListener</text></g></g><g transform="translate(-106,-30) scale(1,1)"><g><path fill="none" stroke="none"/><text fill="#000000" stroke="none" font-family="Arial" font-size="13px" font-style="normal" font-weight="normal" text-decoration="none" x="452.979736328125" y="687.5">(from ClientSide)</text></g></g><g transform="translate(-106,-30) scale(1,1)"><g><path fill="none" stroke="none"/><text fill="#000000" stroke="none" font-family="Arial" font-size="13px" font-style="normal" font-weight="normal" text-decoration="none" x="221" y="710.5">+replyChatRequest(remoteUser: String, remoteTunnel: IRemoteUserTunnel): IRemoteUserTunnel</text></g></g><g transform="translate(-106,-30) scale(1,1)"><g><path fill="none" stroke="none"/><text fill="#000000" stroke="none" font-family="Arial" font-size="13px" font-style="normal" font-weight="normal" text-decoration="none" x="221" y="725.5">+updateFriendStatus(remoteUser: String, status: StatusType)</text></g></g><g transform="translate(-106,-30) scale(1,1)"><path fill="none" stroke="#000000" d="M 1072 659 L 787 659" stroke-miterlimit="10"/></g><g transform="translate(-106,-30) scale(1,1)"><path fill="none" stroke="#000000" d="M 797.1626748576241 654.790482243984 L 787 659 L 797.1626748576241 663.209517756016" stroke-miterlimit="10"/></g><g transform="translate(-106,-30) scale(1,1)"><g><path fill="none" stroke="none"/><text fill="#000000" stroke="none" font-family="Arial" font-size="13px" font-style="normal" font-weight="normal" text-decoration="none" x="790.5" y="678.5">+retrievedServerNotificationsListeners</text></g></g><g transform="translate(-106,-30) scale(1,1)"><g><path fill="none" stroke="none"/><text fill="#000000" stroke="none" font-family="Arial" font-size="13px" font-style="normal" font-weight="normal" text-decoration="none" x="798.5" y="652.5">0..*</text></g></g><g transform="translate(-106,-30) scale(1,1)"><path fill="#ffffff" stroke="none" d="M 184 40 L 357 40 L 367 50 L 367 76 L 184 76 L 184 40"/></g><g transform="translate(-106,-30) scale(1,1)"><path fill="none" stroke="#000000" d="M 184 40 L 357 40 L 367 50 L 367 76 L 184 76 L 184 40 L 184 40" stroke-miterlimit="10"/></g><g transform="translate(-106,-30) scale(1,1)"><path fill="none" stroke="#000000" d="M 357 40 L 357 50 L 367 50 L 357 40" stroke-miterlimit="10"/></g><g transform="translate(-106,-30) scale(1,1)"><g><path fill="none" stroke="none"/><text fill="#000000" stroke="none" font-family="Arial" font-size="13px" font-style="normal" font-weight="normal" text-decoration="none" x="189" y="58">Required standard getters &amp;</text><text fill="#000000" stroke="none" font-family="Arial" font-size="13px" font-style="normal" font-weight="normal" text-decoration="none" x="189" y="71">setters are not displayed</text></g></g></g></svg>