<svg version="1.1" xmlns="http://www.w3.org/2000/svg" xmlns:xlink="http://www.w3.org/1999/xlink" width="1482" height="787"><defs/><g><g transform="translate(-6,-30) scale(1,1)"><path fill="#ffffff" stroke="none" d="M 250.27434055397728 729.6800000000001 C 250.27434055397728 724.8861679360001 254.1601828789227 721 258.95361328125 721 C 263.74704368357726 721 267.63288600852275 724.8861679360001 267.63288600852275 729.6800000000001 C 267.63288600852275 734.473832064 263.74704368357726 738.36 258.95361328125 738.36 C 254.1601828789227 738.36 250.27434055397728 734.473832064 250.27434055397728 729.6800000000001 Z"/></g><g transform="translate(-6,-30) scale(1,1)"><path fill="none" stroke="#000000" d="M 250.27434055397728 729.6800000000001 C 250.27434055397728 724.8861679360001 254.1601828789227 721 258.95361328125 721 C 263.74704368357726 721 267.63288600852275 724.8861679360001 267.63288600852275 729.6800000000001 C 267.63288600852275 734.473832064 263.74704368357726 738.36 258.95361328125 738.36 C 254.1601828789227 738.36 250.27434055397728 734.473832064 250.27434055397728 729.6800000000001 Z" stroke-miterlimit="10"/></g><g transform="translate(-6,-30) scale(1,1)"><path fill="none" stroke="#000000" d="M 258.95361328125 738.36 L 258.95361328125 755.64" stroke-miterlimit="10"/></g><g transform="translate(-6,-30) scale(1,1)"><path fill="none" stroke="#000000" d="M 249.76379509943183 744.84 L 268.14343146306817 744.84" stroke-miterlimit="10"/></g><g transform="translate(-6,-30) scale(1,1)"><path fill="none" stroke="#000000" d="M 258.95361328125 755.64 L 246.18997691761365 773" stroke-miterlimit="10"/></g><g transform="translate(-6,-30) scale(1,1)"><path fill="none" stroke="#000000" d="M 258.95361328125 755.64 L 271.71724964488635 773" stroke-miterlimit="10"/></g><g transform="translate(-6,-30) scale(1,1)"><g><path fill="none" stroke="none"/><text fill="#000000" stroke="none" font-family="Arial" font-size="13px" font-style="normal" font-weight="bold" text-decoration="none" x="245.22998046875" y="793.5">User</text></g></g><g transform="translate(-6,-30) scale(1,1)"><path fill="#ffffff" stroke="none" d="M 784.0602292258523 49.68 C 784.0602292258523 44.886167936 787.9460715507977 41 792.739501953125 41 C 797.5329323554523 41 801.4187746803977 44.886167936 801.4187746803977 49.68 C 801.4187746803977 54.473832064 797.5329323554523 58.36 792.739501953125 58.36 C 787.9460715507977 58.36 784.0602292258523 54.473832064 784.0602292258523 49.68 Z"/></g><g transform="translate(-6,-30) scale(1,1)"><path fill="none" stroke="#000000" d="M 784.0602292258523 49.68 C 784.0602292258523 44.886167936 787.9460715507977 41 792.739501953125 41 C 797.5329323554523 41 801.4187746803977 44.886167936 801.4187746803977 49.68 C 801.4187746803977 54.473832064 797.5329323554523 58.36 792.739501953125 58.36 C 787.9460715507977 58.36 784.0602292258523 54.473832064 784.0602292258523 49.68 Z" stroke-miterlimit="10"/></g><g transform="translate(-6,-30) scale(1,1)"><path fill="none" stroke="#000000" d="M 792.739501953125 58.36 L 792.739501953125 75.64" stroke-miterlimit="10"/></g><g transform="translate(-6,-30) scale(1,1)"><path fill="none" stroke="#000000" d="M 783.5496837713068 64.84 L 801.9293201349432 64.84" stroke-miterlimit="10"/></g><g transform="translate(-6,-30) scale(1,1)"><path fill="none" stroke="#000000" d="M 792.739501953125 75.64 L 779.9758655894886 93" stroke-miterlimit="10"/></g><g transform="translate(-6,-30) scale(1,1)"><path fill="none" stroke="#000000" d="M 792.739501953125 75.64 L 805.5031383167614 93" stroke-miterlimit="10"/></g><g transform="translate(-6,-30) scale(1,1)"><g><path fill="none" stroke="none"/><text fill="#000000" stroke="none" font-family="Arial" font-size="13px" font-style="normal" font-weight="bold" text-decoration="none" x="773.594970703125" y="113.5">Server</text></g></g><g transform="translate(-6,-30) scale(1,1)"><path fill="#ffffff" stroke="none" d="M 1252.2711667258523 737.6800000000001 C 1252.2711667258523 732.8861679360001 1256.1570090507978 729 1260.950439453125 729 C 1265.7438698554522 729 1269.6297121803977 732.8861679360001 1269.6297121803977 737.6800000000001 C 1269.6297121803977 742.473832064 1265.7438698554522 746.36 1260.950439453125 746.36 C 1256.1570090507978 746.36 1252.2711667258523 742.473832064 1252.2711667258523 737.6800000000001 Z"/></g><g transform="translate(-6,-30) scale(1,1)"><path fill="none" stroke="#000000" d="M 1252.2711667258523 737.6800000000001 C 1252.2711667258523 732.8861679360001 1256.1570090507978 729 1260.950439453125 729 C 1265.7438698554522 729 1269.6297121803977 732.8861679360001 1269.6297121803977 737.6800000000001 C 1269.6297121803977 742.473832064 1265.7438698554522 746.36 1260.950439453125 746.36 C 1256.1570090507978 746.36 1252.2711667258523 742.473832064 1252.2711667258523 737.6800000000001 Z" stroke-miterlimit="10"/></g><g transform="translate(-6,-30) scale(1,1)"><path fill="none" stroke="#000000" d="M 1260.950439453125 746.36 L 1260.950439453125 763.64" stroke-miterlimit="10"/></g><g transform="translate(-6,-30) scale(1,1)"><path fill="none" stroke="#000000" d="M 1251.7606212713067 752.84 L 1270.1402576349433 752.84" stroke-miterlimit="10"/></g><g transform="translate(-6,-30) scale(1,1)"><path fill="none" stroke="#000000" d="M 1260.950439453125 763.64 L 1248.1868030894886 781" stroke-miterlimit="10"/></g><g transform="translate(-6,-30) scale(1,1)"><path fill="none" stroke="#000000" d="M 1260.950439453125 763.64 L 1273.7140758167614 781" stroke-miterlimit="10"/></g><g transform="translate(-6,-30) scale(1,1)"><g><path fill="none" stroke="none"/><text fill="#000000" stroke="none" font-family="Arial" font-size="13px" font-style="normal" font-weight="bold" text-decoration="none" x="1223.734130859375" y="801.5">Another user</text></g></g><g transform="translate(-6,-30) scale(1,1)"><path fill="#C0C0C0" stroke="none" d="M 327 88 C 327 78.6111584 361.0263552 71 403 71 C 444.9736448 71 479 78.6111584 479 88 C 479 97.3888416 444.9736448 105 403 105 C 361.0263552 105 327 97.3888416 327 88 Z" opacity="0.2"/></g><g transform="translate(-6,-30) scale(1,1)"><path fill="#ffffff" stroke="none" d="M 320 81 C 320 71.6111584 354.0263552 64 396 64 C 437.9736448 64 472 71.6111584 472 81 C 472 90.3888416 437.9736448 98 396 98 C 354.0263552 98 320 90.3888416 320 81 Z"/></g><g transform="translate(-6,-30) scale(1,1)"><path fill="none" stroke="#000000" d="M 320 81 C 320 71.6111584 354.0263552 64 396 64 C 437.9736448 64 472 71.6111584 472 81 C 472 90.3888416 437.9736448 98 396 98 C 354.0263552 98 320 90.3888416 320 81 Z" stroke-miterlimit="10"/></g><g transform="translate(-6,-30) scale(1,1)"><g><path fill="none" stroke="none"/><text fill="#000000" stroke="none" font-family="Arial" font-size="13px" font-style="normal" font-weight="bold" text-decoration="none" x="350.48095703125" y="88">Retrieve friends</text></g></g><g transform="translate(-6,-30) scale(1,1)"><path fill="none" stroke="#000000" d="M 266 719 L 392 99" stroke-miterlimit="10"/></g><g transform="translate(-6,-30) scale(1,1)"><path fill="none" stroke="#000000" d="M 473 81 L 767 79" stroke-miterlimit="10"/></g><g transform="translate(-6,-30) scale(1,1)"><path fill="#C0C0C0" stroke="none" d="M 23 88 C 23 78.6111584 70.2339536 71 128.5 71 C 186.7660464 71 234 78.6111584 234 88 C 234 97.3888416 186.7660464 105 128.5 105 C 70.2339536 105 23 97.3888416 23 88 Z" opacity="0.2"/></g><g transform="translate(-6,-30) scale(1,1)"><path fill="#ffffff" stroke="none" d="M 16 81 C 16 71.6111584 63.2339536 64 121.5 64 C 179.7660464 64 227 71.6111584 227 81 C 227 90.3888416 179.7660464 98 121.5 98 C 63.2339536 98 16 90.3888416 16 81 Z"/></g><g transform="translate(-6,-30) scale(1,1)"><path fill="none" stroke="#000000" d="M 16 81 C 16 71.6111584 63.2339536 64 121.5 64 C 179.7660464 64 227 71.6111584 227 81 C 227 90.3888416 179.7660464 98 121.5 98 C 63.2339536 98 16 90.3888416 16 81 Z" stroke-miterlimit="10"/></g><g transform="translate(-6,-30) scale(1,1)"><g><path fill="none" stroke="none"/><text fill="#000000" stroke="none" font-family="Arial" font-size="13px" font-style="normal" font-weight="bold" text-decoration="none" x="56.826904296875" y="88">Retrieve online friends</text></g></g><g transform="translate(-6,-30) scale(1,1)"><path fill="#C0C0C0" stroke="none" d="M 559 520 C 559 510.6111584 599.0705104 503 648.5 503 C 697.9294896 503 738 510.6111584 738 520 C 738 529.3888416 697.9294896 537 648.5 537 C 599.0705104 537 559 529.3888416 559 520 Z" opacity="0.2"/></g><g transform="translate(-6,-30) scale(1,1)"><path fill="#ffffff" stroke="none" d="M 552 513 C 552 503.6111584 592.0705104 496 641.5 496 C 690.9294896 496 731 503.6111584 731 513 C 731 522.3888416 690.9294896 530 641.5 530 C 592.0705104 530 552 522.3888416 552 513 Z"/></g><g transform="translate(-6,-30) scale(1,1)"><path fill="none" stroke="#000000" d="M 552 513 C 552 503.6111584 592.0705104 496 641.5 496 C 690.9294896 496 731 503.6111584 731 513 C 731 522.3888416 690.9294896 530 641.5 530 C 592.0705104 530 552 522.3888416 552 513 Z" stroke-miterlimit="10"/></g><g transform="translate(-6,-30) scale(1,1)"><g><path fill="none" stroke="none"/><text fill="#000000" stroke="none" font-family="Arial" font-size="13px" font-style="normal" font-weight="bold" text-decoration="none" x="587.300537109375" y="520">Request friendship</text></g></g><g transform="translate(-6,-30) scale(1,1)"><path fill="#C0C0C0" stroke="none" d="M 439 392 C 439 382.6111584 476.6080768 375 523 375 C 569.3919232 375 607 382.6111584 607 392 C 607 401.3888416 569.3919232 409 523 409 C 476.6080768 409 439 401.3888416 439 392 Z" opacity="0.2"/></g><g transform="translate(-6,-30) scale(1,1)"><path fill="#ffffff" stroke="none" d="M 432 385 C 432 375.6111584 469.6080768 368 516 368 C 562.3919232 368 600 375.6111584 600 385 C 600 394.3888416 562.3919232 402 516 402 C 469.6080768 402 432 394.3888416 432 385 Z"/></g><g transform="translate(-6,-30) scale(1,1)"><path fill="none" stroke="#000000" d="M 432 385 C 432 375.6111584 469.6080768 368 516 368 C 562.3919232 368 600 375.6111584 600 385 C 600 394.3888416 562.3919232 402 516 402 C 469.6080768 402 432 394.3888416 432 385 Z" stroke-miterlimit="10"/></g><g transform="translate(-6,-30) scale(1,1)"><g><path fill="none" stroke="none"/><text fill="#000000" stroke="none" font-family="Arial" font-size="13px" font-style="normal" font-weight="bold" text-decoration="none" x="466.13916015625" y="392">Accept friendship</text></g></g><g transform="translate(-6,-30) scale(1,1)"><path fill="#C0C0C0" stroke="none" d="M 391 328 C 391 318.6111584 422.5639216 311 461.5 311 C 500.4360784 311 532 318.6111584 532 328 C 532 337.3888416 500.4360784 345 461.5 345 C 422.5639216 345 391 337.3888416 391 328 Z" opacity="0.2"/></g><g transform="translate(-6,-30) scale(1,1)"><path fill="#ffffff" stroke="none" d="M 384 321 C 384 311.6111584 415.5639216 304 454.5 304 C 493.4360784 304 525 311.6111584 525 321 C 525 330.3888416 493.4360784 338 454.5 338 C 415.5639216 338 384 330.3888416 384 321 Z"/></g><g transform="translate(-6,-30) scale(1,1)"><path fill="none" stroke="#000000" d="M 384 321 C 384 311.6111584 415.5639216 304 454.5 304 C 493.4360784 304 525 311.6111584 525 321 C 525 330.3888416 493.4360784 338 454.5 338 C 415.5639216 338 384 330.3888416 384 321 Z" stroke-miterlimit="10"/></g><g transform="translate(-6,-30) scale(1,1)"><g><path fill="none" stroke="none"/><text fill="#000000" stroke="none" font-family="Arial" font-size="13px" font-style="normal" font-weight="bold" text-decoration="none" x="412.945068359375" y="328">End friendship</text></g></g><g transform="translate(-6,-30) scale(1,1)"><path fill="none" stroke="#000000" d="M 276 719 L 446 339" stroke-miterlimit="10"/></g><g transform="translate(-6,-30) scale(1,1)"><path fill="none" stroke="#000000" d="M 479 303 L 767 97" stroke-miterlimit="10"/></g><g transform="translate(-6,-30) scale(1,1)"><path fill="#C0C0C0" stroke="none" d="M 31 216 C 31 206.6111584 90.54612159999999 199 164 199 C 237.4538784 199 297 206.6111584 297 216 C 297 225.3888416 237.4538784 233 164 233 C 90.54612159999999 233 31 225.3888416 31 216 Z" opacity="0.2"/></g><g transform="translate(-6,-30) scale(1,1)"><path fill="#ffffff" stroke="none" d="M 24 209 C 24 199.6111584 83.54612159999999 192 157 192 C 230.4538784 192 290 199.6111584 290 209 C 290 218.3888416 230.4538784 226 157 226 C 83.54612159999999 226 24 218.3888416 24 209 Z"/></g><g transform="translate(-6,-30) scale(1,1)"><path fill="none" stroke="#000000" d="M 24 209 C 24 199.6111584 83.54612159999999 192 157 192 C 230.4538784 192 290 199.6111584 290 209 C 290 218.3888416 230.4538784 226 157 226 C 83.54612159999999 226 24 218.3888416 24 209 Z" stroke-miterlimit="10"/></g><g transform="translate(-6,-30) scale(1,1)"><g><path fill="none" stroke="none"/><text fill="#000000" stroke="none" font-family="Arial" font-size="13px" font-style="normal" font-weight="bold" text-decoration="none" x="74.616943359375" y="216">Retrieve pending friendships</text></g></g><g transform="translate(-6,-30) scale(1,1)"><path fill="#C0C0C0" stroke="none" d="M 511 448 C 511 438.6111584 547.2649312 431 592 431 C 636.7350688 431 673 438.6111584 673 448 C 673 457.3888416 636.7350688 465 592 465 C 547.2649312 465 511 457.3888416 511 448 Z" opacity="0.2"/></g><g transform="translate(-6,-30) scale(1,1)"><path fill="#ffffff" stroke="none" d="M 504 441 C 504 431.6111584 540.2649312 424 585 424 C 629.7350688 424 666 431.6111584 666 441 C 666 450.3888416 629.7350688 458 585 458 C 540.2649312 458 504 450.3888416 504 441 Z"/></g><g transform="translate(-6,-30) scale(1,1)"><path fill="none" stroke="#000000" d="M 504 441 C 504 431.6111584 540.2649312 424 585 424 C 629.7350688 424 666 431.6111584 666 441 C 666 450.3888416 629.7350688 458 585 458 C 540.2649312 458 504 450.3888416 504 441 Z" stroke-miterlimit="10"/></g><g transform="translate(-6,-30) scale(1,1)"><g><path fill="none" stroke="none"/><text fill="#000000" stroke="none" font-family="Arial" font-size="13px" font-style="normal" font-weight="bold" text-decoration="none" x="536.58642578125" y="448">Reject friendship</text></g></g><g transform="translate(-6,-30) scale(1,1)"><path fill="#C0C0C0" stroke="none" d="M 1151 360 C 1151 350.6111584 1203.606536 343 1268.5 343 C 1333.393464 343 1386 350.6111584 1386 360 C 1386 369.3888416 1333.393464 377 1268.5 377 C 1203.606536 377 1151 369.3888416 1151 360 Z" opacity="0.2"/></g><g transform="translate(-6,-30) scale(1,1)"><path fill="#ffffff" stroke="none" d="M 1144 353 C 1144 343.6111584 1196.606536 336 1261.5 336 C 1326.393464 336 1379 343.6111584 1379 353 C 1379 362.3888416 1326.393464 370 1261.5 370 C 1196.606536 370 1144 362.3888416 1144 353 Z"/></g><g transform="translate(-6,-30) scale(1,1)"><path fill="none" stroke="#000000" d="M 1144 353 C 1144 343.6111584 1196.606536 336 1261.5 336 C 1326.393464 336 1379 343.6111584 1379 353 C 1379 362.3888416 1326.393464 370 1261.5 370 C 1196.606536 370 1144 362.3888416 1144 353 Z" stroke-miterlimit="10"/></g><g transform="translate(-6,-30) scale(1,1)"><g><path fill="none" stroke="none"/><text fill="#000000" stroke="none" font-family="Arial" font-size="13px" font-style="italic" font-weight="bold" text-decoration="none" x="1199.56591796875" y="360">Notify about user status</text></g></g><g transform="translate(-6,-30) scale(1,1)"><path fill="#C0C0C0" stroke="none" d="M 1247 184 C 1247 174.6111584 1300.2781088 167 1366 167 C 1431.7218912 167 1485 174.6111584 1485 184 C 1485 193.3888416 1431.7218912 201 1366 201 C 1300.2781088 201 1247 193.3888416 1247 184 Z" opacity="0.2"/></g><g transform="translate(-6,-30) scale(1,1)"><path fill="#ffffff" stroke="none" d="M 1240 177 C 1240 167.6111584 1293.2781088 160 1359 160 C 1424.7218912 160 1478 167.6111584 1478 177 C 1478 186.3888416 1424.7218912 194 1359 194 C 1293.2781088 194 1240 186.3888416 1240 177 Z"/></g><g transform="translate(-6,-30) scale(1,1)"><path fill="none" stroke="#000000" d="M 1240 177 C 1240 167.6111584 1293.2781088 160 1359 160 C 1424.7218912 160 1478 167.6111584 1478 177 C 1478 186.3888416 1424.7218912 194 1359 194 C 1293.2781088 194 1240 186.3888416 1240 177 Z" stroke-miterlimit="10"/></g><g transform="translate(-6,-30) scale(1,1)"><g><path fill="none" stroke="none"/><text fill="#000000" stroke="none" font-family="Arial" font-size="13px" font-style="normal" font-weight="bold" text-decoration="none" x="1286.011474609375" y="184">Notify about online status</text></g></g><g transform="translate(-6,-30) scale(1,1)"><path fill="#C0C0C0" stroke="none" d="M 839 336 C 839 326.6111584 900.1131248 319 975.5 319 C 1050.8868752 319 1112 326.6111584 1112 336 C 1112 345.3888416 1050.8868752 353 975.5 353 C 900.1131248 353 839 345.3888416 839 336 Z" opacity="0.2"/></g><g transform="translate(-6,-30) scale(1,1)"><path fill="#ffffff" stroke="none" d="M 832 329 C 832 319.6111584 893.1131248 312 968.5 312 C 1043.8868752 312 1105 319.6111584 1105 329 C 1105 338.3888416 1043.8868752 346 968.5 346 C 893.1131248 346 832 338.3888416 832 329 Z"/></g><g transform="translate(-6,-30) scale(1,1)"><path fill="none" stroke="#000000" d="M 832 329 C 832 319.6111584 893.1131248 312 968.5 312 C 1043.8868752 312 1105 319.6111584 1105 329 C 1105 338.3888416 1043.8868752 346 968.5 346 C 893.1131248 346 832 338.3888416 832 329 Z" stroke-miterlimit="10"/></g><g transform="translate(-6,-30) scale(1,1)"><g><path fill="none" stroke="none"/><text fill="#000000" stroke="none" font-family="Arial" font-size="13px" font-style="normal" font-weight="bold" text-decoration="none" x="884.676025390625" y="336">Notify about friendship status</text></g></g><g transform="translate(-6,-30) scale(1,1)"><path fill="none" stroke="#000000" d="M 1349 195 L 1271 335" stroke-miterlimit="10"/></g><g transform="translate(-6,-30) scale(1,1)"><path fill="#FFFFFF" stroke="none" d="M 1273.5377917583842 313.14686262819276 L 1271 335 L 1288.2469913873988 321.34198813578666"/></g><g transform="translate(-6,-30) scale(1,1)"><path fill="none" stroke="#000000" d="M 1273.5377917583842 313.14686262819276 L 1271 335 L 1288.2469913873988 321.34198813578666 L 1273.5377917583842 313.14686262819276" stroke-miterlimit="10"/></g><g transform="translate(-6,-30) scale(1,1)"><path fill="none" stroke="#000000" d="M 1106 340 L 1143 343" stroke-miterlimit="10"/></g><g transform="translate(-6,-30) scale(1,1)"><path fill="#FFFFFF" stroke="none" d="M 1122.0607418566456 349.7488864567396 L 1143 343 L 1123.4215251947999 332.96589195283707"/></g><g transform="translate(-6,-30) scale(1,1)"><path fill="none" stroke="#000000" d="M 1122.0607418566456 349.7488864567396 L 1143 343 L 1123.4215251947999 332.96589195283707 L 1122.0607418566456 349.7488864567396" stroke-miterlimit="10"/></g><g transform="translate(-6,-30) scale(1,1)"><path fill="none" stroke="#000000" d="M 228 81 L 319 81" stroke-miterlimit="10" stroke-dasharray="3"/></g><g transform="translate(-6,-30) scale(1,1)"><path fill="none" stroke="#000000" d="M 308.83732514237585 85.20951775601598 L 319 81 L 308.83732514237585 76.79048224398402" stroke-miterlimit="10"/></g><g transform="translate(-6,-30) scale(1,1)"><g><path fill="none" stroke="none"/><text fill="#000000" stroke="none" font-family="Arial" font-size="13px" font-style="normal" font-weight="normal" text-decoration="none" x="233.5" y="72.5">+friend status</text></g></g><g transform="translate(-6,-30) scale(1,1)"><g><path fill="none" stroke="none"/><text fill="#000000" stroke="none" font-family="Arial" font-size="13px" font-style="normal" font-weight="normal" text-decoration="none" x="246.5" y="57.5">«extend»</text></g></g><g transform="translate(-6,-30) scale(1,1)"><path fill="none" stroke="#000000" d="M 279 729 L 504 403" stroke-miterlimit="10"/></g><g transform="translate(-6,-30) scale(1,1)"><path fill="none" stroke="#000000" d="M 532 367 L 767 107" stroke-miterlimit="10"/></g><g transform="translate(-6,-30) scale(1,1)"><path fill="none" stroke="#000000" d="M 1261 371 L 1260 727" stroke-miterlimit="10"/></g><g transform="translate(-6,-30) scale(1,1)"><path fill="none" stroke="#000000" d="M 1230 335 L 818 94" stroke-miterlimit="10"/></g><g transform="translate(-6,-30) scale(1,1)"><path fill="none" stroke="#000000" d="M 191 191 L 362 99" stroke-miterlimit="10" stroke-dasharray="3"/></g><g transform="translate(-6,-30) scale(1,1)"><path fill="none" stroke="#000000" d="M 355.04481722576975 107.52205565442112 L 362 99 L 351.0559397530596 100.10794643884027" stroke-miterlimit="10"/></g><g transform="translate(-6,-30) scale(1,1)"><g><path fill="none" stroke="none"/><text fill="#000000" stroke="none" font-family="Arial" font-size="13px" font-style="normal" font-weight="normal" text-decoration="none" x="228.5" y="137.5">+friend status</text></g></g><g transform="translate(-6,-30) scale(1,1)"><g><path fill="none" stroke="none"/><text fill="#000000" stroke="none" font-family="Arial" font-size="13px" font-style="normal" font-weight="normal" text-decoration="none" x="234.5" y="124.5">«extend»</text></g></g><g transform="translate(-6,-30) scale(1,1)"><path fill="#C0C0C0" stroke="none" d="M 639 768 C 639 758.6111584 670.5639216 751 709.5 751 C 748.4360784 751 780 758.6111584 780 768 C 780 777.3888416 748.4360784 785 709.5 785 C 670.5639216 785 639 777.3888416 639 768 Z" opacity="0.2"/></g><g transform="translate(-6,-30) scale(1,1)"><path fill="#ffffff" stroke="none" d="M 632 761 C 632 751.6111584 663.5639216 744 702.5 744 C 741.4360784 744 773 751.6111584 773 761 C 773 770.3888416 741.4360784 778 702.5 778 C 663.5639216 778 632 770.3888416 632 761 Z"/></g><g transform="translate(-6,-30) scale(1,1)"><path fill="none" stroke="#000000" d="M 632 761 C 632 751.6111584 663.5639216 744 702.5 744 C 741.4360784 744 773 751.6111584 773 761 C 773 770.3888416 741.4360784 778 702.5 778 C 663.5639216 778 632 770.3888416 632 761 Z" stroke-miterlimit="10"/></g><g transform="translate(-6,-30) scale(1,1)"><g><path fill="none" stroke="none"/><text fill="#000000" stroke="none" font-family="Arial" font-size="13px" font-style="normal" font-weight="bold" text-decoration="none" x="659.13916015625" y="768">Send message</text></g></g><g transform="translate(-6,-30) scale(1,1)"><path fill="none" stroke="#000000" d="M 279 759 L 631 761" stroke-miterlimit="10"/></g><g transform="translate(-6,-30) scale(1,1)"><path fill="none" stroke="#000000" d="M 774 762 L 1215 767" stroke-miterlimit="10"/></g><g transform="translate(-6,-30) scale(1,1)"><path fill="none" stroke="#000000" d="M 279 739 L 566 459" stroke-miterlimit="10"/></g><g transform="translate(-6,-30) scale(1,1)"><path fill="none" stroke="#000000" d="M 279 746 L 613 531" stroke-miterlimit="10"/></g><g transform="translate(-6,-30) scale(1,1)"><path fill="none" stroke="#000000" d="M 526 322 L 831 327" stroke-miterlimit="10" stroke-dasharray="3"/></g><g transform="translate(-6,-30) scale(1,1)"><path fill="none" stroke="#000000" d="M 820.769691234191 331.04237338159294 L 831 327 L 820.9076896678519 322.6244689282766" stroke-miterlimit="10"/></g><g transform="translate(-6,-30) scale(1,1)"><g><path fill="none" stroke="none"/><text fill="#000000" stroke="none" font-family="Arial" font-size="13px" font-style="normal" font-weight="normal" text-decoration="none" x="650.5" y="300.5">«include»</text></g></g><g transform="translate(-6,-30) scale(1,1)"><path fill="none" stroke="#000000" d="M 601 374 L 831 346" stroke-miterlimit="10" stroke-dasharray="3"/></g><g transform="translate(-6,-30) scale(1,1)"><path fill="none" stroke="#000000" d="M 821.4205130841646 351.40679483884287 L 831 346 L 820.4030985464948 343.0494611365552" stroke-miterlimit="10"/></g><g transform="translate(-6,-30) scale(1,1)"><g><path fill="none" stroke="none"/><text fill="#000000" stroke="none" font-family="Arial" font-size="13px" font-style="normal" font-weight="normal" text-decoration="none" x="684.5" y="336.5">«include»</text></g></g><g transform="translate(-6,-30) scale(1,1)"><path fill="none" stroke="#000000" d="M 647 423 L 906 347" stroke-miterlimit="10" stroke-dasharray="3"/></g><g transform="translate(-6,-30) scale(1,1)"><path fill="none" stroke="#000000" d="M 897.433734563595 353.9006591332316 L 906 347 L 895.0632327527092 345.822238488239" stroke-miterlimit="10"/></g><g transform="translate(-6,-30) scale(1,1)"><g><path fill="none" stroke="none"/><text fill="#000000" stroke="none" font-family="Arial" font-size="13px" font-style="normal" font-weight="normal" text-decoration="none" x="739.5" y="362.5">«include»</text></g></g><g transform="translate(-6,-30) scale(1,1)"><path fill="none" stroke="#000000" d="M 673 495 L 936 347" stroke-miterlimit="10" stroke-dasharray="3"/></g><g transform="translate(-6,-30) scale(1,1)"><path fill="none" stroke="#000000" d="M 929.2077863088928 355.65250444520746 L 936 347 L 925.078935072297 348.3154242072029" stroke-miterlimit="10"/></g><g transform="translate(-6,-30) scale(1,1)"><g><path fill="none" stroke="none"/><text fill="#000000" stroke="none" font-family="Arial" font-size="13px" font-style="normal" font-weight="normal" text-decoration="none" x="761.5" y="400.5">«include»</text></g></g><g transform="translate(-6,-30) scale(1,1)"><path fill="none" stroke="#000000" d="M 595 423 L 769 120" stroke-miterlimit="10"/></g><g transform="translate(-6,-30) scale(1,1)"><path fill="none" stroke="#000000" d="M 647 495 L 778 120" stroke-miterlimit="10"/></g><g transform="translate(-6,-30) scale(1,1)"><path fill="none" stroke="#000000" d="M 589 367 L 1286 195" stroke-miterlimit="10" stroke-dasharray="3"/></g><g transform="translate(-6,-30) scale(1,1)"><path fill="none" stroke="#000000" d="M 1277.1418447578892 201.52173946939493 L 1286 195 L 1275.1247721555592 193.34790456344138" stroke-miterlimit="10"/></g><g transform="translate(-6,-30) scale(1,1)"><g><path fill="none" stroke="none"/><text fill="#000000" stroke="none" font-family="Arial" font-size="13px" font-style="normal" font-weight="normal" text-decoration="none" x="901.5" y="257.5">«include»</text></g></g><g transform="translate(-6,-30) scale(1,1)"><path fill="none" stroke="#000000" d="M 526 310 L 1246 195" stroke-miterlimit="10" stroke-dasharray="3"/></g><g transform="translate(-6,-30) scale(1,1)"><path fill="none" stroke="#000000" d="M 1236.6284653392938 200.7597168422746 L 1246 195 L 1235.300589454403 192.44605912817659" stroke-miterlimit="10"/></g><g transform="translate(-6,-30) scale(1,1)"><g><path fill="none" stroke="none"/><text fill="#000000" stroke="none" font-family="Arial" font-size="13px" font-style="normal" font-weight="normal" text-decoration="none" x="853.5" y="228.5">«include»</text></g></g></g></svg>